<svg xmlns="http://www.w3.org/2000/svg" xmlns:xlink="http://www.w3.org/1999/xlink" width="66" height="38" viewBox="0 0 66 38">
  <defs>
    <clipPath id="clip-Artboard_18">
      <rect width="66" height="38"/>
    </clipPath>
  </defs>
  <g id="Artboard_18" data-name="Artboard – 18" clip-path="url(#clip-Artboard_18)">
    <g id="Group_15" data-name="Group 15" transform="translate(-93 -88)">
      <g id="Group_18" data-name="Group 18" transform="translate(88 88.658)">
        <g id="Group_17" data-name="Group 17" transform="translate(0 24.367)">
          <g id="Group_16" data-name="Group 16">
            <g id="Group_13" data-name="Group 13">
              <text id="CASCADE" transform="translate(0 -0.025)" fill="#4bc2c4" font-size="6.2" font-family="Sanchez-Regular, Sanchez " letter-spacing="0.876em"><tspan x="6.396" y="5">CASCADE</tspan></text>
            </g>
          </g>
          <g id="Group_14" data-name="Group 14" transform="translate(12.674 7.667)">
            <text id="BOOKKEEPING_SOLUTIONS" data-name="BOOKKEEPING SOLUTIONS" transform="translate(26 3)" fill="#4bc2c4" font-size="3.7" font-family="GlacialIndifference-Bold, Glacial Indifference" font-weight="700" letter-spacing="0.239em"><tspan x="-31.528" y="0">BOOKKEEPING SOLUTIONS</tspan></text>
          </g>
        </g>
        <g id="Group_12" data-name="Group 12" transform="translate(6.299)">
          <path id="Path_1" data-name="Path 1" d="M6468.421,1764.557l4.5,2.882,7.976-12.249,6.5,8.292a18.329,18.329,0,0,1,1.6-1.827,3.917,3.917,0,0,1,1.376,0c.222.087,5.917,4.977,5.917,4.977s3.88.8,4.167.976,4.271,4.264,4.271,4.264l1.2.64,4.935,3.732h-1.977l-2.958-.4-.786-1.106h1.775l-4.557-2.541v.819l-2.124-.739,4.409,3.969h-5.486a11.645,11.645,0,0,0-.94-1.379c-.17-.11-3.74-1.193-3.74-1.193h2.545l1.917.368v-.368l-8.194-4.651,6.531,2.467-4.836-3.5,9.064,2.326-2.28-2.132-.716-.194-3.028-.632s-4.92-4.244-5.109-4.348a2.6,2.6,0,0,0-1,0c-.029.024-.45.289-1.289,1.991s-2.349,6.461-2.458,6.572a.444.444,0,0,1-.506,0c-.152-.1-5.631-6.222-5.631-6.222l2.864.688-2-3.635s6.108,4.7,6.229,4.539a1.444,1.444,0,0,0,.188-.427l-4.218-4.714-.2-.619,2.052,1.058-3.095-3.7s.731.1.743,0a12.227,12.227,0,0,0-1.029-1.289l-11.963,18.6-2.917-3.319,3.267,1.5-1.437-2.957,1.579.778-.7-2.108,2.223,1.33-2.017-2.819h.667a1.242,1.242,0,0,1,0-.407,23.749,23.749,0,0,1,2.415.525l-3.288-1.936-7.08,9.8h-1.856Z" transform="translate(-6454.901 -1755.19)" fill="#4bc2c4"/>
          <path id="Path_2" data-name="Path 2" d="M7319.375,2329.147h-6.8v-.7l1.728-.649,1.261.261-.719-1.347s1.536.429,1.882.546.23-.779.23-.779,2.324,1.577,2.414,1.719A3.314,3.314,0,0,1,7319.375,2329.147Z" transform="translate(-7279.025 -2308.201)" fill="#4bc2c4"/>
          <path id="Path_3" data-name="Path 3" d="M7141.176,2224.839a24.678,24.678,0,0,1-1.7,3.7s-1.236-1.161-1.282-1.553.91-1.127.9-1.458a13.022,13.022,0,0,0-1.631-2.2v-.526S7141.107,2224.453,7141.176,2224.839Z" transform="translate(-7109.778 -2207.392)" fill="#4bc2c4"/>
          <path id="Path_4" data-name="Path 4" d="M6882.508,2208.075h-9.12a4.269,4.269,0,0,1,0-1.212,19.116,19.116,0,0,1,2.636-1.215l-1.237-3.788a1.668,1.668,0,0,1,.492,0c.072.048,2.813,4.641,2.813,4.641v-.853h1.281s-1.723-3.761-1.737-3.93a1.26,1.26,0,0,1,.227-.511Z" transform="translate(-6854.493 -2187.147)" fill="#4bc2c4"/>
          <path id="Path_5" data-name="Path 5" d="M6558.234,2354.035h-5.374l.76-1.05a2.35,2.35,0,0,0,.652.185,7.61,7.61,0,0,0,.976-.944l1.011.944s.471-.47.634-.483a4.941,4.941,0,0,1,1.284.664A2.008,2.008,0,0,1,6558.234,2354.035Z" transform="translate(-6544.749 -2333.106)" fill="#4bc2c4"/>
          <rect id="Rectangle_35" data-name="Rectangle 35" width="63" height="1" transform="translate(-0.299 20.342)" fill="#4bc2c4"/>
        </g>
      </g>
    </g>
  </g>
</svg>
